<svg xmlns="http://www.w3.org/2000/svg" viewBox="0 0 48 48" fill="none">
  <circle cx="24" cy="24" r="24" fill="#FF4D30"/>
  <circle cx="24" cy="26" r="14" fill="#2B7DE9"/>
  <ellipse cx="15" cy="22" rx="4.5" ry="6" fill="#2B7DE9"/>
  <ellipse cx="33" cy="22" rx="4.5" ry="6" fill="#2B7DE9"/>
  <path d="M24 12c-2 0-4 1.2-5 3.2-.8 1.5-.8 3.3 0 4.8.8 1.5 2.2 2.5 3.8 2.8 1.2.2 2.4.2 3.6 0 1.6-.3 3-1.3 3.8-2.8.8-1.5.8-3.3 0-4.8C28 13.2 26 12 24 12z" fill="#FF6B35"/>
  <ellipse cx="24" cy="28" rx="9" ry="8" fill="#5BA3FF"/>
  <circle cx="20" cy="26" r="1.8" fill="#1A1A1A"/>
  <circle cx="28" cy="26" r="1.8" fill="#1A1A1A"/>
  <circle cx="20.6" cy="25.4" r=".6" fill="#fff"/>
  <circle cx="28.6" cy="25.4" r=".6" fill="#fff"/>
  <ellipse cx="24" cy="31" rx="3" ry="2" fill="#FF8A65"/>
  <path d="M21 31.5c1 1.2 2 1.8 3 1.8s2-.6 3-1.8" stroke="#C62828" stroke-width="1" stroke-linecap="round"/>
</svg>
