<?xml version="1.0" standalone="no"?><!DOCTYPE svg PUBLIC "-//W3C//DTD SVG 1.1//EN" "http://www.w3.org/Graphics/SVG/1.1/DTD/svg11.dtd"><svg t="1775195544335" class="icon" viewBox="0 0 1024 1024" version="1.1" xmlns="http://www.w3.org/2000/svg" p-id="2848" xmlns:xlink="http://www.w3.org/1999/xlink" width="200" height="200"><path d="M142.08 352m10.666667 0l203.306666 0q10.666667 0 10.666667 10.666667l0 64q0 10.666667-10.666667 10.666666l-203.306666 0q-10.666667 0-10.666667-10.666666l0-64q0-10.666667 10.666667-10.666667Z" p-id="2849"></path><path d="M440.746667 352m10.666666 0l203.306667 0q10.666667 0 10.666667 10.666667l0 64q0 10.666667-10.666667 10.666666l-203.306667 0q-10.666667 0-10.666666-10.666666l0-64q0-10.666667 10.666666-10.666667Z" p-id="2850"></path><path d="M142.08 170.666667m10.666667 0l203.306666 0q10.666667 0 10.666667 10.666666l0 64q0 10.666667-10.666667 10.666667l-203.306666 0q-10.666667 0-10.666667-10.666667l0-64q0-10.666667 10.666667-10.666666Z" p-id="2851"></path><path d="M142.08 586.666667m10.666667 0l203.306666 0q10.666667 0 10.666667 10.666666l0 64q0 10.666667-10.666667 10.666667l-203.306666 0q-10.666667 0-10.666667-10.666667l0-64q0-10.666667 10.666667-10.666666Z" p-id="2852"></path><path d="M440.746667 586.666667m10.666666 0l203.306667 0q10.666667 0 10.666667 10.666666l0 64q0 10.666667-10.666667 10.666667l-203.306667 0q-10.666667 0-10.666666-10.666667l0-64q0-10.666667 10.666666-10.666666Z" p-id="2853"></path><path d="M142.08 768m10.666667 0l203.306666 0q10.666667 0 10.666667 10.666667l0 64q0 10.666667-10.666667 10.666666l-203.306666 0q-10.666667 0-10.666667-10.666666l0-64q0-10.666667 10.666667-10.666667Z" p-id="2854"></path><path d="M860.586667 170.666667h-309.333334a10.666667 10.666667 0 0 0-10.666666 10.666666v64a10.666667 10.666667 0 0 0 10.666666 10.666667h234.666667a10.666667 10.666667 0 0 1 10.666667 10.666667v490.666666a10.666667 10.666667 0 0 1-10.666667 10.666667h-234.666667a10.666667 10.666667 0 0 0-10.666666 10.666667v64a10.666667 10.666667 0 0 0 10.666666 10.666666h309.333334a21.333333 21.333333 0 0 0 21.333333-21.333333V192a21.333333 21.333333 0 0 0-21.333333-21.333333z" p-id="2855"></path></svg>